<svg width="104" height="43" viewBox="0 0 104 43" fill="none" xmlns="http://www.w3.org/2000/svg">
<path d="M17.0207 20.4167H12.7417V27.1204H6.18069V20.4167H1.90175V36.8193H6.18069V30.4485H12.7417V36.8193H17.0207V20.4167Z" fill="#080047"/>
<path d="M24.7456 23.7923C20.5855 23.7923 17.9231 26.3835 17.9231 30.4722C17.9231 34.5372 20.5855 37.1521 24.7456 37.1521C28.9057 37.1521 31.5681 34.5372 31.5681 30.4722C31.5681 26.3835 28.9057 23.7923 24.7456 23.7923ZM24.7456 34.252C23.2242 34.252 22.2971 32.9921 22.2971 30.4722C22.2971 27.9286 23.2242 26.6925 24.7456 26.6925C26.267 26.6925 27.1941 27.9286 27.1941 30.4722C27.1941 32.9921 26.267 34.252 24.7456 34.252Z" fill="#080047"/>
<path d="M36.655 19.347H32.3761V32.3264C32.3761 33.2773 32.3761 33.9192 32.4236 34.5848C32.5187 36.2726 33.636 37.0571 35.6091 37.0571C36.5599 37.0571 37.3207 37.0095 38.1051 36.9382V34.038C36.9878 34.0856 36.7739 33.9192 36.7026 33.42C36.655 33.1109 36.655 32.8494 36.655 32.2551V19.347Z" fill="#080047"/>
<path d="M46.2116 36.8193H50.3954C50.2053 35.4168 50.1577 34.561 50.1577 33.6101V30.0443C50.1577 29.2599 50.134 28.5229 50.0864 27.8811C49.8962 25.5752 48.5175 23.7923 44.5 23.7923C41.2908 23.7923 38.6521 25.4801 38.6284 28.4516L42.6696 28.4279C42.7409 27.3343 43.3114 26.6925 44.3098 26.6925C45.2369 26.6925 45.7599 27.263 45.8312 27.9049C45.8788 28.309 45.8788 28.5705 45.8788 28.832V29.0222H45.0705C40.7678 29.0222 38.2005 30.6862 38.2005 33.3962C38.2005 35.8447 40.1735 37.1521 42.2655 37.1521C43.4303 37.1521 44.5 36.8669 45.4033 36.2964L45.9263 34.9651L46.2116 36.8193ZM44.0246 34.252C43.1688 34.252 42.5745 33.8241 42.5745 33.0634C42.5745 31.8035 43.9533 31.3043 45.8788 31.4469V32.2789C45.8788 33.6101 44.8804 34.252 44.0246 34.252Z" fill="#080047"/>
<path d="M60.6894 20.5118C59.8573 20.4167 59.477 20.4167 58.5974 20.4167H52.393V36.8193H58.5974C59.477 36.8193 59.8573 36.8193 60.6894 36.7242C64.4929 36.2964 67.6308 33.5388 67.6308 28.4041C67.6308 23.2694 64.4929 20.9397 60.6894 20.5118ZM59.5483 33.4437C59.0016 33.4913 58.6212 33.4913 58.0031 33.4913H56.6719V23.7448H58.0031C58.6212 23.7448 59.0016 23.7448 59.5483 23.7923C61.6878 23.9825 63.1616 25.5515 63.1616 28.4754C63.1616 31.3993 61.6878 33.2536 59.5483 33.4437Z" fill="#CD252D"/>
<path d="M77.0199 20.0839C71.9089 20.0839 68.6284 23.3407 68.6284 28.618C68.6284 33.8716 71.9089 37.1521 77.0199 37.1521C82.1308 37.1521 85.4114 33.8716 85.4114 28.618C85.4114 23.3407 82.1308 20.0839 77.0199 20.0839ZM77.0199 34.0143C74.5476 34.0143 73.0024 32.0887 73.0024 28.618C73.0024 25.1236 74.5476 23.2218 77.0199 23.2218C79.4922 23.2218 81.0373 25.1236 81.0373 28.618C81.0373 32.0887 79.4922 34.0143 77.0199 34.0143Z" fill="#CD252D"/>
<path d="M94.5159 20.0839C90.0705 20.0839 86.4097 23.0316 86.4097 28.7369C86.4097 34.2995 89.9517 37.1521 94.3495 37.1521C98.462 37.1521 101.481 35.1315 101.885 31.1854L101.909 30.9477H97.63L97.5825 31.1854C97.2259 32.9921 96.1561 34.0143 94.4921 34.0143C92.5904 34.0143 90.8788 32.6117 90.8788 28.4754C90.8788 24.9334 92.424 23.2218 94.4683 23.2218C96.2037 23.2218 97.2734 24.0538 97.63 25.8129L97.6775 26.0507H101.956L101.933 25.8129C101.6 22.58 99.1989 20.0839 94.5159 20.0839Z" fill="#CD252D"/>
<path fill-rule="evenodd" clip-rule="evenodd" d="M85.9001 19.3225C85.9001 19.3225 84.9001 18.6225 83.5001 17.4225C83.6001 17.4225 83.6001 17.4225 83.7001 17.4225C95.5001 15.3225 90.3001 9.42251 93.8001 6.72251C94.9001 5.82251 96.2001 5.32251 97.3001 4.92251C97.4001 5.62251 97.4001 6.32251 97.2001 7.12251C95.9001 12.2225 85.9001 19.3225 85.9001 19.3225ZM82.0001 16.2225C82.4001 16.0225 82.8001 15.9225 83.3001 15.9225C92.8001 14.6225 89.4001 9.72251 92.3001 6.12251C93.4001 4.72251 95.4001 3.92251 96.9001 3.52251C96.6001 2.72251 96.1001 2.02251 95.5001 1.42251C94.6001 1.62251 91.9001 2.22251 89.9001 3.82251C86.4001 6.52251 91.5001 12.4225 80.0001 14.5225C80.7001 15.0225 81.4001 15.7225 82.0001 16.2225ZM78.7001 13.1225C78.9001 13.0225 79.2001 13.0225 79.4001 12.9225C88.9001 11.6225 85.5001 6.72251 88.4001 3.12251C89.7001 1.52251 92.2001 0.722513 93.8001 0.322513C91.7001 -0.477487 88.9001 0.122513 85.9001 3.12251C85.5001 2.72251 85.2001 2.42251 84.9001 2.12251C83.9001 5.02251 85.6001 9.12251 76.9001 10.9225C77.4001 11.7225 78.0001 12.4225 78.7001 13.1225ZM75.8001 9.62251C83.8001 8.42251 82.4001 4.72251 83.7001 1.32251C82.6001 0.622513 81.5001 0.222513 80.5001 0.0225128C80.0001 2.52251 80.4001 5.62251 74.6001 7.42251C75.0001 8.12251 75.4001 8.92251 75.8001 9.62251ZM74.5001 6.02251C74.3001 3.12251 76.3001 0.322513 79.3001 0.0225128C78.7001 2.42251 78.5001 4.72251 74.5001 6.02251Z" fill="#080047"/>
</svg>
